<svg fill="#ffffff" xmlns="http://www.w3.org/2000/svg" viewBox="0 0 64.4 31.09"><path d="M23.08,11.45a4.36,4.36,0,0,1-.49,2.13,7.54,7.54,0,0,1-1.36.27,15.41,15.41,0,0,1-1.87.1,16.8,16.8,0,0,1-3.61-.37,9.46,9.46,0,0,1,.49-2.19,24,24,0,0,0,3.77.3c.46,0,.9,0,1.33-.06-.07-.29-.15-.58-.24-.85l-.17-.5,1.93-.45A5.81,5.81,0,0,1,23.08,11.45Zm-2.79-1.2a2.23,2.23,0,0,1-.49.56,4.89,4.89,0,0,1-.57-.33,2.51,2.51,0,0,1-.52-.43,2.75,2.75,0,0,1-.31.44,1.91,1.91,0,0,1-.31.32,5.49,5.49,0,0,1-.62-.37A2.9,2.9,0,0,1,17,10a2.12,2.12,0,0,1,.36-.67q.29-.42.48-.42a1.19,1.19,0,0,1,.57.27,1.44,1.44,0,0,1,.47.45,3,3,0,0,1,.35-.51.49.49,0,0,1,.32-.21,1.36,1.36,0,0,1,.61.29c.27.2.42.35.45.47A1,1,0,0,1,20.29,10.25Z" transform="translate(-6.56 -0.93)"/><path d="M43.48,11.33a6.18,6.18,0,0,1-.13,1.23,3.22,3.22,0,0,1-.38,1,8.77,8.77,0,0,1-1.33.24,14.31,14.31,0,0,1-1.81.11H26.37a8.87,8.87,0,0,1-1.28-.09,3.85,3.85,0,0,1-1-.26,38.2,38.2,0,0,1-.18-3.9L23.8,7.19l1.93-.11c.07,1.2.11,2.29.11,3.29,0,.31,0,.71,0,1.23a3.78,3.78,0,0,0,.56,0H39.83a8.86,8.86,0,0,0,1.9-.14c-.07-.27-.15-.54-.24-.8s-.14-.43-.16-.48l1.92-.45A5.2,5.2,0,0,1,43.48,11.33Z" transform="translate(-6.56 -0.93)"/><path d="M40.9,8.71a2,2,0,0,1-.17-.83,2.65,2.65,0,0,1,.06-.58h.42a1.4,1.4,0,0,0,.1.58.25.25,0,0,0,.24.17.35.35,0,0,0,.34-.24,2.26,2.26,0,0,0,.17-.64l.41.08c0,.43.05.64.24.64s.15,0,.2-.16A1.55,1.55,0,0,0,43,7.17h.42v.19a2.84,2.84,0,0,1-.17,1,.62.62,0,0,1-.59.45.51.51,0,0,1-.48-.29h0a.75.75,0,0,1-.69.55A.59.59,0,0,1,40.9,8.71Z" transform="translate(-6.56 -0.93)"/><path d="M42.76,15a1.2,1.2,0,0,0-.6-.29.48.48,0,0,0-.33.21,3,3,0,0,0-.34.51A1.55,1.55,0,0,0,41,15a1.22,1.22,0,0,0-.58-.27q-.19,0-.48.42a2.65,2.65,0,0,0-.36.67,3.57,3.57,0,0,0,.53.44,4.07,4.07,0,0,0,.61.36,1.48,1.48,0,0,0,.31-.31,2.85,2.85,0,0,0,.32-.44,2.7,2.7,0,0,0,.51.42,3.09,3.09,0,0,0,.58.33,2.35,2.35,0,0,0,.49-.55,1,1,0,0,0,.26-.59C43.19,15.36,43,15.21,42.76,15Z" transform="translate(-6.56 -0.93)"/><path d="M70.74,9.77l-1.92.45c0,.06.09.24.19.54s.18.59.26.9a2.51,2.51,0,0,1-.64.1c-.52,0-.78-.3-.78-.92,0-.06,0-.17,0-.31l-1-.16a2.11,2.11,0,0,1-.48,1,1,1,0,0,1-.72.33c-.54,0-.83-.46-.87-1.37h-1a1.52,1.52,0,0,1-.35.88,1.23,1.23,0,0,1-.61.35,4.67,4.67,0,0,1-.82.06H48.57c-.12,0-.31,0-.57,0a3.56,3.56,0,0,0-.24-1.12,2.15,2.15,0,0,0-.6-.86,1.35,1.35,0,0,0-.91-.34,1.57,1.57,0,0,0-1,.41,3,3,0,0,0-.82,1,2.53,2.53,0,0,0-.33,1.2,1.43,1.43,0,0,0,.48,1.1,2.53,2.53,0,0,0,1.19.59,12.57,12.57,0,0,1-1.51,1.8l-.1.11a.41.41,0,0,0-.09.1,4.56,4.56,0,0,0,.86.7,4.67,4.67,0,0,0,1,.52,10.82,10.82,0,0,0,1-1.37,8.55,8.55,0,0,0,.78-1.68,6.28,6.28,0,0,0,.94.08H62a2.91,2.91,0,0,0,1-.16,1.84,1.84,0,0,0,.81-.68H64a1.68,1.68,0,0,0,.65.67,1.82,1.82,0,0,0,.89.23,1.77,1.77,0,0,0,.91-.24,1.79,1.79,0,0,0,.68-.66h.11a1.82,1.82,0,0,0,.7.65,2.16,2.16,0,0,0,1,.22,3.81,3.81,0,0,0,1.59-.38,3,3,0,0,0,.36-1A5.34,5.34,0,0,0,71,11.36,5.12,5.12,0,0,0,70.74,9.77Zm-24.18,2a5.66,5.66,0,0,1-.6,0c-.36,0-.56-.12-.61-.2a.29.29,0,0,1,.14-.26.63.63,0,0,1,.35-.09,1.29,1.29,0,0,1,.6.16,1.88,1.88,0,0,1,.51.41Z" transform="translate(-6.56 -0.93)"/><path d="M67.77,1.3a2.3,2.3,0,0,1,.31,1.21,1.91,1.91,0,0,1-1,.62,13.25,13.25,0,0,1-1.77.51,1.44,1.44,0,0,1-.1-.4,2.63,2.63,0,0,1,0-.41c.29-.06.66-.15,1.1-.28a1.59,1.59,0,0,1-.16-.66.92.92,0,0,1,.29-.7,1,1,0,0,1,.68-.26A.84.84,0,0,1,67.77,1.3Zm-.34.83a.48.48,0,0,0-.11-.28.33.33,0,0,0-.24-.1.3.3,0,0,0-.26.11.41.41,0,0,0-.1.29.67.67,0,0,0,0,.24A2.7,2.7,0,0,0,67.43,2.13Z" transform="translate(-6.56 -0.93)"/><path d="M65.68,5.29a2,2,0,0,1-.17-.83,2.65,2.65,0,0,1,.06-.58H66a1.4,1.4,0,0,0,.1.58.25.25,0,0,0,.24.17.35.35,0,0,0,.34-.24,2.26,2.26,0,0,0,.17-.64l.41.08c0,.43,0,.64.24.64a.21.21,0,0,0,.2-.16,1.55,1.55,0,0,0,.09-.56h.42v.19a2.84,2.84,0,0,1-.17,1,.61.61,0,0,1-.59.45A.51.51,0,0,1,67,5.08h0a.75.75,0,0,1-.69.55A.59.59,0,0,1,65.68,5.29Z" transform="translate(-6.56 -0.93)"/><path d="M67.22,6.28A1.26,1.26,0,0,0,66.64,6c-.09,0-.19.07-.31.2a2.63,2.63,0,0,0-.32.44,2.42,2.42,0,0,0-.18.4,4.16,4.16,0,0,0,.52.42,3.63,3.63,0,0,0,.58.34,2.1,2.1,0,0,0,.46-.52,1.07,1.07,0,0,0,.26-.57A1.1,1.1,0,0,0,67.22,6.28Zm1,1.66a1.27,1.27,0,0,0-.61-.29.52.52,0,0,0-.33.21,2.11,2.11,0,0,0-.35.5,1.42,1.42,0,0,0-.5-.47q-.4-.28-.57-.24c-.13,0-.28.17-.47.44a2,2,0,0,0-.34.64,2.7,2.7,0,0,0,.53.44,2.85,2.85,0,0,0,.61.36,2,2,0,0,0,.31-.3,2.75,2.75,0,0,0,.31-.44,3.4,3.4,0,0,0,.54.42,2.94,2.94,0,0,0,.55.32A2.07,2.07,0,0,0,68.41,9a1,1,0,0,0,.27-.59C68.65,8.29,68.51,8.14,68.24,7.94Z" transform="translate(-6.56 -0.93)"/><path d="M31.73,20.7a1.3,1.3,0,0,0-.61-.3.52.52,0,0,0-.33.21,2.75,2.75,0,0,0-.34.52,1.55,1.55,0,0,0-.47-.46,1.22,1.22,0,0,0-.58-.27c-.13,0-.29.15-.48.42a2.85,2.85,0,0,0-.36.68,3.57,3.57,0,0,0,.53.44,4.07,4.07,0,0,0,.61.36A1.74,1.74,0,0,0,30,22a3.58,3.58,0,0,0,.31-.44,2.7,2.7,0,0,0,.51.42,3.09,3.09,0,0,0,.58.33,2.35,2.35,0,0,0,.49-.55,1,1,0,0,0,.26-.59C32.15,21.05,32,20.9,31.73,20.7Z" transform="translate(-6.56 -0.93)"/><path d="M43.48,24.17l-1.93.45a13.23,13.23,0,0,1,.4,1.32,5,5,0,0,1-1.16.1,1.8,1.8,0,0,1-.94-.17.76.76,0,0,1-.26-.68,1.86,1.86,0,0,1,0-.26l-1-.16a1.85,1.85,0,0,1-.94,1A3.88,3.88,0,0,1,36.1,26a1.43,1.43,0,0,1-.8-.16.81.81,0,0,1-.22-.68,2,2,0,0,1,0-.27l-1-.16a1.52,1.52,0,0,1-.63,1,2,2,0,0,1-1.13.3.67.67,0,0,1-.5-.16.86.86,0,0,1-.2-.56c-.06-.8-.1-1.65-.12-2.54l-.1-.08a4.71,4.71,0,0,0-.85.1,5.83,5.83,0,0,0-.84.2,1.06,1.06,0,0,0-.13.18l-.12.21L28.39,24a3.07,3.07,0,0,0-.73.72,1.65,1.65,0,0,0-.38,1.09A1.67,1.67,0,0,0,27.72,27a2.11,2.11,0,0,0,1,.66,3.13,3.13,0,0,0,1.54-.43,1.64,1.64,0,0,0,.86.82,3.09,3.09,0,0,0,1.22.24,3.26,3.26,0,0,0,1.17-.19,1.66,1.66,0,0,0,.83-.65h.1a1.44,1.44,0,0,0,.72.64,2.48,2.48,0,0,0,1,.2,6.07,6.07,0,0,0,1.42-.17,3.3,3.3,0,0,0,1.3-.67h.11a2,2,0,0,0,.81.62,2.74,2.74,0,0,0,1,.22,7.92,7.92,0,0,0,2.41-.35,3.26,3.26,0,0,0,.37-1,6,6,0,0,0,.12-1.23A5.38,5.38,0,0,0,43.48,24.17ZM29.26,25.54a1.35,1.35,0,0,1-.59-.11,1.82,1.82,0,0,1,.42-.36,6.23,6.23,0,0,1,.58-.29c0,.25,0,.49.07.71A3.13,3.13,0,0,1,29.26,25.54Z" transform="translate(-6.56 -0.93)"/><path d="M35.16,23.06h-.23a4.78,4.78,0,0,0-.88.09.6.6,0,0,1-.14-.35.2.2,0,0,1,.11-.17.46.46,0,0,1,.25-.07,1.14,1.14,0,0,1,.44.11.68.68,0,0,0,.15-.43.52.52,0,0,0-.26-.48.58.58,0,0,0-.33-.08,1,1,0,0,0-.48.13,1.33,1.33,0,0,0-.41.37.79.79,0,0,0-.16.48,1,1,0,0,0,.25.62,4,4,0,0,0-.52.17.92.92,0,0,0,0,.23c0,.11,0,.22,0,.33a.59.59,0,0,0,.08.23,8.67,8.67,0,0,1,.94-.16,6.88,6.88,0,0,1,.9-.08,1.56,1.56,0,0,0,.2-.4,2.46,2.46,0,0,0,.14-.47Z" transform="translate(-6.56 -0.93)"/><path d="M39.26,29.41a1.25,1.25,0,0,0-.61-.29.49.49,0,0,0-.32.21,3,3,0,0,0-.35.51,1.34,1.34,0,0,0-.47-.45,1.16,1.16,0,0,0-.57-.27q-.19,0-.48.42a2.65,2.65,0,0,0-.36.67,2.7,2.7,0,0,0,.53.44,3.63,3.63,0,0,0,.61.36,1.76,1.76,0,0,0,.31-.31,2.75,2.75,0,0,0,.31-.44,2.83,2.83,0,0,0,.52.42A3.06,3.06,0,0,0,39,31a2.34,2.34,0,0,0,.5-.55,1,1,0,0,0,.26-.59C39.69,29.76,39.54,29.61,39.26,29.41Z" transform="translate(-6.56 -0.93)"/><path d="M42.56,29.59a2.38,2.38,0,0,0-.5-.35.67.67,0,0,0-.41-.12.61.61,0,0,0-.33.24,2.93,2.93,0,0,0-.34.5,1.58,1.58,0,0,0-.19.42,2.43,2.43,0,0,0,.56.49,4.68,4.68,0,0,0,.67.38,2.6,2.6,0,0,0,.53-.6q.31-.45.27-.63A.78.78,0,0,0,42.56,29.59Z" transform="translate(-6.56 -0.93)"/><path d="M47.46,24.12a2.59,2.59,0,0,1,.6,1.05,3.64,3.64,0,0,1,.16,1.26,6.63,6.63,0,0,1-.71,2.62,11.12,11.12,0,0,1-1.4,2.2,4.7,4.7,0,0,1-1-.52,4.5,4.5,0,0,1-.86-.7l.09-.1.11-.1A14.63,14.63,0,0,0,46,28a2.63,2.63,0,0,1-1.19-.6,1.43,1.43,0,0,1-.48-1.1,2.63,2.63,0,0,1,.32-1.2,3.21,3.21,0,0,1,.83-1,1.56,1.56,0,0,1,1-.4A1.31,1.31,0,0,1,47.46,24.12Zm-.68,2h.38a1.51,1.51,0,0,0-.51-.42,1.34,1.34,0,0,0-.59-.16.66.66,0,0,0-.36.09.29.29,0,0,0-.13.26c0,.09.25.15.61.2A3.86,3.86,0,0,0,46.78,26.12Z" transform="translate(-6.56 -0.93)"/><path d="M54.3,26.47a5,5,0,0,1-.45,1.47c-.4,0-.89.09-1.47.19s-1.09.22-1.56.35a1.34,1.34,0,0,1-.14-.42,3.07,3.07,0,0,1-.06-.57.94.94,0,0,1,0-.28,6.71,6.71,0,0,1,.82-.34A1.46,1.46,0,0,1,51,25.82a1.4,1.4,0,0,1,.26-.79,1.92,1.92,0,0,1,.65-.62,1.53,1.53,0,0,1,.78-.24.9.9,0,0,1,.48.12.79.79,0,0,1,.35.35,1,1,0,0,1,.12.48,1.08,1.08,0,0,1-.19.65,1.72,1.72,0,0,0-.66-.13.93.93,0,0,0-.44.09.38.38,0,0,0-.2.27.64.64,0,0,0,.06.28,1.17,1.17,0,0,0,.2.33,8.08,8.08,0,0,1,1.83-.24Z" transform="translate(-6.56 -0.93)"/><path d="M68.07,24.94a7.87,7.87,0,0,1-.15,1.16,8.49,8.49,0,0,1-.38,1.09l-.46,0a4.75,4.75,0,0,0-1.56.3l-.6.23a11.86,11.86,0,0,1-1.31.44,5.24,5.24,0,0,1-1.33.15,2.74,2.74,0,0,1-1.05-.22,2,2,0,0,1-.81-.62h-.11a3.24,3.24,0,0,1-1.3.67,6.07,6.07,0,0,1-1.42.17,8.87,8.87,0,0,1-1.28-.09,3.85,3.85,0,0,1-1-.26,38.2,38.2,0,0,1-.18-3.9L55,21.59,57,21.48c.08,1.2.11,2.29.11,3.29,0,.31,0,.71,0,1.23a3.65,3.65,0,0,0,.55,0,3.88,3.88,0,0,0,1.55-.27,1.87,1.87,0,0,0,1-1l1,.16c0,.06,0,.15,0,.26a.74.74,0,0,0,.27.68,1.73,1.73,0,0,0,.93.17A6,6,0,0,0,63.39,26c.31-.06.72-.14,1.22-.26l.3-.08.74-.16a6.33,6.33,0,0,0-.76-.37,3.47,3.47,0,0,0-.72-.19,10,10,0,0,0-1-.09h-.26l0-.05a7.6,7.6,0,0,1,.18-1,6,6,0,0,1,.27-.82l.47,0a2.49,2.49,0,0,1,.83.13,4.73,4.73,0,0,1,.78.39l.42.28c.67.43,1.18.75,1.52.95A1.75,1.75,0,0,0,68.07,24.94Z" transform="translate(-6.56 -0.93)"/><path d="M60.75,29.41a1.23,1.23,0,0,0-.6-.29.48.48,0,0,0-.33.21,3.75,3.75,0,0,0-.35.51,1.38,1.38,0,0,0-.46-.45,1.22,1.22,0,0,0-.58-.27q-.2,0-.48.42a2.65,2.65,0,0,0-.36.67,2.7,2.7,0,0,0,.53.44,4.07,4.07,0,0,0,.61.36A1.76,1.76,0,0,0,59,30.7a2.75,2.75,0,0,0,.31-.44,3.22,3.22,0,0,0,.52.42,2.8,2.8,0,0,0,.58.33,2.35,2.35,0,0,0,.49-.55,1,1,0,0,0,.26-.59C61.18,29.76,61,29.61,60.75,29.41Z" transform="translate(-6.56 -0.93)"/><path d="M70.73,20.56a3.16,3.16,0,0,1-.19.4,6.65,6.65,0,0,0-.91.07,8.49,8.49,0,0,0-.94.17.57.57,0,0,1-.07-.24,1.69,1.69,0,0,1,0-.33.48.48,0,0,1,0-.22,2.53,2.53,0,0,1,.51-.17,1,1,0,0,1-.25-.63.84.84,0,0,1,.16-.48,1.29,1.29,0,0,1,.41-.36,1,1,0,0,1,.49-.14.66.66,0,0,1,.32.08.53.53,0,0,1,.27.48.72.72,0,0,1-.16.44.91.91,0,0,0-.43-.11.5.5,0,0,0-.26.06.21.21,0,0,0-.1.18.59.59,0,0,0,.13.35,4.11,4.11,0,0,1,.89-.1h.22l.05.06A2.07,2.07,0,0,1,70.73,20.56Zm0,.93c.11,1.53.16,3,.16,4.36,0,.88,0,1.58,0,2.13a2.79,2.79,0,0,1-.8.23,6.92,6.92,0,0,1-1.1.1l-.07-.06c0-.64.06-1.3.06-2,0-1.29,0-2.84-.14-4.67Z" transform="translate(-6.56 -0.93)"/><path d="M17.39,30a1.65,1.65,0,0,0-1.16,2l11.11-3a1.64,1.64,0,0,0-2-1.16l-3.18.85-.42-1.59,2.38-.64a1.64,1.64,0,0,0,1.16-2l-6.35,1.7a2.46,2.46,0,0,1-2.4-4.09,2,2,0,0,1-.68-1,3,3,0,0,1-.06-.51,4.11,4.11,0,0,0,3.57,7.23l.42,1.59Z" transform="translate(-6.56 -0.93)"/><path d="M17.35,18.54a2,2,0,0,1,2.19,3.12l.34.49a.82.82,0,0,0,1.14.2.82.82,0,1,0,1.35-.94.82.82,0,0,0,.21-1.14l-2.84-4.05a.83.83,0,0,0-1.15-.2.82.82,0,1,0-1.34.94A.81.81,0,0,0,17,18.1Z" transform="translate(-6.56 -0.93)"/><circle cx="11.26" cy="19.6" r="1.23"/><path d="M14.7,17.08a.52.52,0,0,0-.51-.34h-.44l-.13-.39a.55.55,0,0,0-.53-.4h0a.54.54,0,0,0-.52.41l-.13.38H12a.53.53,0,0,0-.52.34.49.49,0,0,0,.23.59l.35.2-.16.49a.55.55,0,0,0,.19.64.51.51,0,0,0,.31.11.56.56,0,0,0,.35-.13l.33-.28.34.28a.56.56,0,0,0,.35.13.51.51,0,0,0,.31-.11.53.53,0,0,0,.19-.64l-.16-.49.35-.2A.49.49,0,0,0,14.7,17.08Zm-1.61.84a.4.4,0,1,1,0-.79.4.4,0,1,1,0,.79Z" transform="translate(-6.56 -0.93)"/><path d="M12.07,19.9h-.44a1.5,1.5,0,0,0-.38-.59,1.58,1.58,0,0,0-.6-.37v-.43a.2.2,0,0,0-.21-.19.19.19,0,0,0-.2.19v.35H10.1A1.62,1.62,0,0,0,9,19.31a1.68,1.68,0,0,0-.18.21l-.57-.21A1.23,1.23,0,0,0,6.64,20h0a1.11,1.11,0,0,0,.05.91,1.09,1.09,0,0,0,.4.45,1.56,1.56,0,0,0,.41,1.55,1.66,1.66,0,0,0,1.6.39,1.09,1.09,0,0,0,.47.4,1.24,1.24,0,0,0,.53.12,1.53,1.53,0,0,0,.41-.07h0a1.18,1.18,0,0,0,.74-1.52L11,21.72a1.73,1.73,0,0,0,.21-.17,1.54,1.54,0,0,0,.47-1.25h.36a.2.2,0,0,0,.2-.2A.2.2,0,0,0,12.07,19.9Zm-4.41.9a.37.37,0,0,1-.24-.2.35.35,0,0,1,0-.3.4.4,0,0,1,.51-.24l1.29.47A2.11,2.11,0,0,1,7.66,20.8ZM10.23,23a.37.37,0,0,1-.31,0,.41.41,0,0,1-.2-.23,2,2,0,0,1,.28-1.5l.48,1.24A.38.38,0,0,1,10.23,23Zm.5-2.11-.25-.63h0l0-.05,0,0,0,0,0,0a.05.05,0,0,0,0,0l-.05,0h0l-.65-.24a.78.78,0,0,1,.51-.18.83.83,0,0,1,.58.23A.77.77,0,0,1,10.73,20.92Z" transform="translate(-6.56 -0.93)"/></svg>