<?xml version="1.0" encoding="utf-8"?>
<!-- Generator: Adobe Illustrator 22.0.0, SVG Export Plug-In . SVG Version: 6.00 Build 0)  -->
<svg version="1.1" id="Layer_1" xmlns="http://www.w3.org/2000/svg" xmlns:xlink="http://www.w3.org/1999/xlink" fill="#ffffff"
	 viewBox="0 0 22.2 16.9">
<title>biology</title>
<path class="st0" d="M10.8,14.9c-0.9,0.2-1.4,1.1-1.2,2l11.1-3c-0.2-0.9-1.1-1.4-2-1.2l-3.2,0.9L15.2,12l2.4-0.6
	c0.9-0.2,1.4-1.1,1.2-2l-6.4,1.7c-1.3,0.4-2.7-0.4-3-1.7C9.1,8.5,9.4,7.6,10,7C9.6,6.7,9.4,6.4,9.3,6c0-0.2-0.1-0.3-0.1-0.5
	c-1.8,1.4-2.1,4-0.8,5.8c1,1.3,2.7,1.9,4.3,1.5l0.4,1.6L10.8,14.9z"/>
<path class="st0" d="M10.8,3.5c1.1-0.3,2.2,0.3,2.5,1.3c0.2,0.6,0.1,1.3-0.3,1.8l0.3,0.5c0.3,0.4,0.8,0.5,1.1,0.2
	c0.3,0.4,0.8,0.5,1.1,0.2s0.5-0.8,0.2-1.1l0,0c0.4-0.3,0.5-0.8,0.2-1.1l-2.8-4c-0.3-0.4-0.8-0.5-1.1-0.2c-0.2-0.4-0.7-0.5-1.1-0.3
	c-0.4,0.2-0.5,0.7-0.3,1.1c0,0,0,0.1,0.1,0.1c-0.4,0.2-0.5,0.7-0.3,1.1c0,0,0,0,0,0L10.8,3.5z"/>
<circle class="st0" cx="11.3" cy="5.5" r="1.2"/>
<path class="st0" d="M8.1,2C8.1,1.8,7.9,1.7,7.6,1.7H7.2L7.1,1.3C7,1,6.8,0.9,6.5,0.9l0,0C6.3,0.9,6.1,1,6,1.3L5.9,1.7H5.4
	C5.2,1.7,5,1.8,4.9,2c-0.1,0.2,0,0.5,0.2,0.6l0.4,0.2L5.3,3.3c-0.1,0.2,0,0.5,0.2,0.6C5.6,4,5.7,4,5.8,4C6,4,6.1,4,6.2,3.9l0.3-0.3
	l0.3,0.3C7,4,7.1,4,7.2,4c0.1,0,0.2,0,0.3-0.1c0.2-0.1,0.3-0.4,0.2-0.6L7.6,2.8l0.4-0.2C8.1,2.5,8.2,2.2,8.1,2z M6.5,2.8
	c-0.2,0-0.4-0.1-0.5-0.3c0-0.2,0.1-0.4,0.3-0.5c0,0,0.1,0,0.1,0C6.7,2,7,2.2,7,2.4c0,0.2-0.1,0.4-0.3,0.5C6.6,2.9,6.6,2.9,6.5,2.8z"
	/>
<path class="st0" d="M5.5,4.8H5.1C5,4.6,4.9,4.4,4.7,4.2C4.5,4.1,4.3,3.9,4.1,3.9V3.4c0-0.1-0.1-0.2-0.2-0.2c0,0,0,0,0,0
	c-0.1,0-0.2,0.1-0.2,0.2c0,0,0,0,0,0v0.4H3.5C3.1,3.8,2.7,4,2.4,4.2C2.4,4.3,2.3,4.4,2.3,4.4L1.7,4.2C1.1,4,0.3,4.3,0.1,4.9
	c0,0,0,0,0,0l0,0C0,5.2,0,5.6,0.1,5.8C0.2,6,0.4,6.2,0.5,6.3c-0.2,0.6,0,1.1,0.4,1.5c0.4,0.4,1,0.6,1.6,0.4C2.7,8.4,2.8,8.5,3,8.6
	c0.2,0.1,0.3,0.1,0.5,0.1c0.1,0,0.3,0,0.4-0.1l0,0c0.6-0.2,1-0.9,0.8-1.5c0,0,0,0,0,0L4.4,6.6c0.1-0.1,0.1-0.1,0.2-0.2
	C5,6.2,5.2,5.7,5.1,5.2h0.4c0.1,0,0.2-0.1,0.2-0.2l0,0C5.7,4.9,5.6,4.8,5.5,4.8z M1.1,5.7C1,5.7,0.9,5.6,0.9,5.5c0-0.1,0-0.2,0-0.3
	C0.9,5,1.2,4.9,1.4,5l1.3,0.5C2.2,5.7,1.6,5.8,1.1,5.7z M3.7,7.9c-0.1,0-0.2,0-0.3,0c-0.1,0-0.2-0.1-0.2-0.2c-0.1-0.5,0-1.1,0.3-1.5
	l0.5,1.2C4,7.6,3.9,7.9,3.7,7.9C3.7,7.9,3.7,7.9,3.7,7.9z M4.2,5.8L3.9,5.2l0,0v0l0,0l0,0l0,0l0,0H3.9l0,0L3.2,4.9
	c0.1-0.1,0.3-0.2,0.5-0.2c0.2,0,0.4,0.1,0.6,0.2C4.5,5.2,4.4,5.6,4.2,5.8L4.2,5.8z"/>
</svg>
